<svg width="13" height="16" viewBox="0 0 13 16" fill="none" xmlns="http://www.w3.org/2000/svg">
<path d="M13 4V14C13 14.276 12.9479 14.5339 12.8438 14.7734C12.7396 15.013 12.5964 15.224 12.4141 15.4062C12.2318 15.5885 12.0182 15.7318 11.7734 15.8359C11.5286 15.9401 11.2708 15.9948 11 16H2C1.72396 16 1.46615 15.9479 1.22656 15.8438C0.986979 15.7396 0.776042 15.5964 0.59375 15.4141C0.411458 15.2318 0.268229 15.0208 0.164062 14.7812C0.0598958 14.5417 0.00520833 14.2812 0 14V4H2V3C2 2.58854 2.07812 2.20052 2.23438 1.83594C2.39062 1.47135 2.60677 1.15365 2.88281 0.882812C3.15885 0.611979 3.47656 0.398438 3.83594 0.242188C4.19531 0.0859375 4.58333 0.00520833 5 0C5.54167 0 6.04427 0.135417 6.50781 0.40625C6.97135 0.135417 7.46875 0 8 0C8.41146 0 8.79948 0.078125 9.16406 0.234375C9.52865 0.390625 9.84635 0.606771 10.1172 0.882812C10.388 1.15885 10.6016 1.47656 10.7578 1.83594C10.9141 2.19531 10.9948 2.58333 11 3V4H13ZM10 3C10 2.72917 9.94792 2.47135 9.84375 2.22656C9.73958 1.98177 9.59635 1.77083 9.41406 1.59375C9.23177 1.41667 9.01823 1.27344 8.77344 1.16406C8.52865 1.05469 8.27083 1 8 1C7.76562 1 7.54427 1.03906 7.33594 1.11719C7.48698 1.30469 7.60677 1.48958 7.69531 1.67188C7.78385 1.85417 7.84896 2.03646 7.89062 2.21875C7.93229 2.40104 7.96094 2.58594 7.97656 2.77344C7.99219 2.96094 8 3.16146 8 3.375V4H10V3ZM3 4H7V3C7 2.72917 6.94792 2.47135 6.84375 2.22656C6.73958 1.98177 6.59635 1.77083 6.41406 1.59375C6.23177 1.41667 6.01823 1.27344 5.77344 1.16406C5.52865 1.05469 5.27083 1 5 1C4.72396 1 4.46615 1.05208 4.22656 1.15625C3.98698 1.26042 3.77604 1.40365 3.59375 1.58594C3.41146 1.76823 3.26823 1.98177 3.16406 2.22656C3.0599 2.47135 3.00521 2.72917 3 3V4ZM9.26562 15C9.08854 14.6875 9 14.3542 9 14V5H1V14C1 14.1406 1.02604 14.2708 1.07812 14.3906C1.13021 14.5104 1.20052 14.6146 1.28906 14.7031C1.3776 14.7917 1.48438 14.8646 1.60938 14.9219C1.73438 14.9792 1.86458 15.0052 2 15H9.26562ZM12 5H10V14C10 14.1406 10.026 14.2708 10.0781 14.3906C10.1302 14.5104 10.2005 14.6146 10.2891 14.7031C10.3776 14.7917 10.4844 14.8646 10.6094 14.9219C10.7344 14.9792 10.8646 15.0052 11 15C11.1406 15 11.2708 14.974 11.3906 14.9219C11.5104 14.8698 11.6146 14.7995 11.7031 14.7109C11.7917 14.6224 11.8646 14.5156 11.9219 14.3906C11.9792 14.2656 12.0052 14.1354 12 14V5Z" fill="#111111"/>
</svg>
