<svg width="19" height="13" viewBox="0 0 19 13" fill="none" xmlns="http://www.w3.org/2000/svg">
<path d="M8.87842 8.91622C9.71696 8.35917 10.3539 7.54696 10.695 6.59978C11.036 5.65261 11.0631 4.62079 10.7721 3.65704C10.4812 2.69328 9.88773 1.8488 9.07954 1.24856C8.27134 0.648321 7.29138 0.324219 6.28467 0.324219C5.27795 0.324219 4.29799 0.648321 3.4898 1.24856C2.6816 1.8488 2.08812 2.69328 1.79718 3.65704C1.50625 4.62079 1.53331 5.65261 1.87437 6.59978C2.21543 7.54696 2.85237 8.35917 3.69092 8.91622C2.26042 9.44225 1.02535 10.3938 0.151853 11.6428C0.0949203 11.7087 0.0524103 11.7859 0.0270519 11.8693C0.00169355 11.9526 -0.00595288 12.0404 0.00460356 12.1269C0.01516 12.2134 0.043686 12.2967 0.0883503 12.3715C0.133015 12.4463 0.19283 12.511 0.263957 12.5613C0.335084 12.6116 0.41595 12.6466 0.501365 12.6638C0.586779 12.681 0.674854 12.6802 0.759935 12.6614C0.845016 12.6426 0.925224 12.6062 0.995408 12.5546C1.06559 12.5029 1.1242 12.4372 1.16748 12.3615C1.74503 11.541 2.51142 10.8714 3.40201 10.4092C4.2926 9.94703 5.28128 9.70575 6.28467 9.70575C7.28805 9.70575 8.27673 9.94703 9.16732 10.4092C10.0579 10.8714 10.8243 11.541 11.4019 12.3615C11.4451 12.4372 11.5037 12.5029 11.5739 12.5546C11.6441 12.6062 11.7243 12.6426 11.8094 12.6614C11.8945 12.6802 11.9826 12.681 12.068 12.6638C12.1534 12.6466 12.2342 12.6116 12.3054 12.5613C12.3765 12.511 12.4363 12.4463 12.481 12.3715C12.5256 12.2967 12.5542 12.2134 12.5647 12.1269C12.5753 12.0404 12.5676 11.9526 12.5423 11.8693C12.5169 11.7859 12.4744 11.7087 12.4175 11.6428C11.544 10.3938 10.3089 9.44225 8.87842 8.91622ZM2.84717 5.01778C2.84717 4.33791 3.04877 3.6733 3.42649 3.10801C3.80421 2.54271 4.34107 2.10212 4.96919 1.84195C5.59731 1.58177 6.28848 1.5137 6.95529 1.64633C7.6221 1.77897 8.2346 2.10636 8.71535 2.5871C9.19609 3.06784 9.52348 3.68035 9.65612 4.34716C9.78875 5.01397 9.72068 5.70513 9.4605 6.33325C9.20033 6.96138 8.75973 7.49824 8.19444 7.87596C7.62914 8.25367 6.96454 8.45528 6.28467 8.45528C5.37298 8.45528 4.49864 8.09312 3.85399 7.44846C3.20933 6.8038 2.84717 5.92946 2.84717 5.01778ZM18.6362 12.51C18.5698 12.5578 18.4945 12.5919 18.4147 12.6104C18.3349 12.6288 18.2523 12.6312 18.1715 12.6174C18.0908 12.6036 18.0137 12.5738 17.9446 12.5299C17.8755 12.486 17.8158 12.4287 17.769 12.3615C17.1911 11.5414 16.4246 10.8721 15.5341 10.4099C14.6436 9.94761 13.6552 9.70598 12.6519 9.70528C12.4861 9.70528 12.3271 9.63943 12.2099 9.52222C12.0927 9.40501 12.0269 9.24604 12.0269 9.08028C12.0269 8.91452 12.0927 8.75555 12.2099 8.63834C12.3271 8.52113 12.4861 8.45528 12.6519 8.45528C13.5635 8.45528 14.4379 8.09312 15.0825 7.44846C15.7272 6.8038 16.0894 5.92946 16.0894 5.01778C16.0894 4.1061 15.7272 3.23176 15.0825 2.5871C14.4379 1.94244 13.5635 1.58028 12.6519 1.58028C12.3379 1.58237 12.0255 1.62437 11.7222 1.70528C11.6432 1.72794 11.5605 1.73479 11.4788 1.72545C11.3972 1.71611 11.3182 1.69076 11.2463 1.65085C11.1745 1.61094 11.1112 1.55725 11.0602 1.49286C11.0091 1.42847 10.9712 1.35464 10.9487 1.27559C10.9051 1.11609 10.9256 0.945851 11.0059 0.8013C11.0862 0.656749 11.2199 0.549374 11.3784 0.502156C11.7937 0.390331 12.2217 0.332562 12.6519 0.330281C13.6596 0.326654 14.6416 0.648437 15.4518 1.24777C16.2619 1.84709 16.857 2.69194 17.1484 3.65664C17.4399 4.62134 17.4121 5.65434 17.0692 6.60199C16.7264 7.54963 16.0868 8.36129 15.2456 8.91622C16.677 9.44439 17.914 10.3953 18.7925 11.6428C18.8862 11.7787 18.9224 11.9461 18.8932 12.1086C18.8639 12.2711 18.7715 12.4154 18.6362 12.51Z" fill="#111111"/>
</svg>
