<svg width="17" height="17" viewBox="0 0 17 17" fill="none" xmlns="http://www.w3.org/2000/svg">
<path d="M15.9141 9.14795L16.8672 3.92139C16.8838 3.83162 16.8798 3.73925 16.8554 3.65126C16.8311 3.56328 16.787 3.482 16.7266 3.41357C16.6688 3.34293 16.5961 3.28597 16.5137 3.24679C16.4313 3.20762 16.3412 3.1872 16.25 3.18701H3.64844L3.26562 1.08545C3.21275 0.798531 3.06117 0.539148 2.83716 0.352233C2.61315 0.165319 2.33081 0.0626499 2.03906 0.0620117H0.625C0.45924 0.0620117 0.300268 0.12786 0.183058 0.24507C0.065848 0.36228 0 0.521251 0 0.687012C0 0.852772 0.065848 1.01174 0.183058 1.12895C0.300268 1.24616 0.45924 1.31201 0.625 1.31201H2.03906L4.17969 13.1089C3.87449 13.3777 3.65027 13.7263 3.53223 14.1155C3.41418 14.5047 3.40698 14.9191 3.51143 15.3122C3.61588 15.7053 3.82785 16.0614 4.12353 16.3407C4.41921 16.62 4.78689 16.8113 5.18528 16.8931C5.58367 16.975 5.99699 16.9442 6.37883 16.8041C6.76067 16.6641 7.0959 16.4203 7.34688 16.1003C7.59787 15.7803 7.75465 15.3966 7.79964 14.9924C7.84463 14.5882 7.77604 14.1794 7.60156 13.812H11.7734C11.5703 14.2403 11.5118 14.7229 11.6066 15.1873C11.7015 15.6517 11.9446 16.0727 12.2994 16.387C12.6542 16.7013 13.1015 16.8918 13.574 16.9299C14.0464 16.968 14.5185 16.8517 14.9191 16.5983C15.3197 16.345 15.6271 15.9684 15.7952 15.5252C15.9633 15.082 15.9829 14.5962 15.851 14.1409C15.7191 13.6857 15.443 13.2855 15.0641 13.0008C14.6851 12.716 14.224 12.562 13.75 12.562H5.35156L5.00781 10.687H14.0703C14.5092 10.6868 14.934 10.5327 15.2709 10.2514C15.6079 9.9702 15.8354 9.5797 15.9141 9.14795ZM6.5625 14.7495C6.5625 14.9349 6.50752 15.1162 6.4045 15.2704C6.30149 15.4245 6.15507 15.5447 5.98377 15.6156C5.81246 15.6866 5.62396 15.7052 5.4421 15.669C5.26025 15.6328 5.0932 15.5435 4.96209 15.4124C4.83098 15.2813 4.74169 15.1143 4.70551 14.9324C4.66934 14.7506 4.68791 14.5621 4.75886 14.3907C4.82982 14.2194 4.94998 14.073 5.10415 13.97C5.25832 13.867 5.43958 13.812 5.625 13.812C5.87364 13.812 6.1121 13.9108 6.28791 14.0866C6.46373 14.2624 6.5625 14.5009 6.5625 14.7495ZM14.6875 14.7495C14.6875 14.9349 14.6325 15.1162 14.5295 15.2704C14.4265 15.4245 14.2801 15.5447 14.1088 15.6156C13.9375 15.6866 13.749 15.7052 13.5671 15.669C13.3852 15.6328 13.2182 15.5435 13.0871 15.4124C12.956 15.2813 12.8667 15.1143 12.8305 14.9324C12.7943 14.7506 12.8129 14.5621 12.8839 14.3907C12.9548 14.2194 13.075 14.073 13.2292 13.97C13.3833 13.867 13.5646 13.812 13.75 13.812C13.9986 13.812 14.2371 13.9108 14.4129 14.0866C14.5887 14.2624 14.6875 14.5009 14.6875 14.7495ZM3.875 4.43701H15.5L14.6875 8.92139C14.6618 9.06622 14.5857 9.19734 14.4729 9.29165C14.36 9.38597 14.2174 9.43744 14.0703 9.43701H4.78125L3.875 4.43701Z" fill="#111111"/>
</svg>
